<svg width="32" height="32" viewBox="0 0 32 32" fill="none" xmlns="http://www.w3.org/2000/svg">
<path d="M0 10.7333C0 6.93673 0 5.03843 0.750577 3.5935C1.38308 2.37588 2.37588 1.38308 3.5935 0.750577C5.03843 0 6.93673 0 10.7333 0H21.2667C25.0633 0 26.9616 0 28.4065 0.750577C29.6241 1.38308 30.6169 2.37588 31.2494 3.5935C32 5.03843 32 6.93673 32 10.7333V21.2667C32 25.0633 32 26.9616 31.2494 28.4065C30.6169 29.6241 29.6241 30.6169 28.4065 31.2494C26.9616 32 25.0633 32 21.2667 32H10.7333C6.93673 32 5.03843 32 3.5935 31.2494C2.37588 30.6169 1.38308 29.6241 0.750577 28.4065C0 26.9616 0 25.0633 0 21.2667V10.7333Z" fill="url(#paint0_linear)"/>
<path d="M22.2221 20.4444L22.9333 15.9999H18.6666V12.8888C18.6666 11.6444 19.111 10.6666 21.0666 10.6666H23.111V6.57772C21.9555 6.39995 20.711 6.22217 19.5555 6.22217C15.911 6.22217 13.3333 8.44439 13.3333 12.4444V15.9999H9.33325V20.4444H13.3333V31.9999C15.111 31.9999 16.8888 31.9999 18.6666 31.9999V20.4444H22.2221Z" fill="white"/>
<defs>
<linearGradient id="paint0_linear" x1="16" y1="31.065" x2="16" y2="0" gradientUnits="userSpaceOnUse">
<stop stop-color="#0062E0"/>
<stop offset="1" stop-color="#19AFFF"/>
</linearGradient>
</defs>
</svg>
