<svg width="32" height="32" viewBox="0 0 32 32" fill="none" xmlns="http://www.w3.org/2000/svg">
<g clip-path="url(#clip0)">
<path d="M0.0183105 10.7343C0.0183105 6.93771 0.0183105 5.0394 0.768888 3.59448C1.40139 2.37686 2.39419 1.38406 3.61181 0.751554C5.05674 0.000976562 6.95504 0.000976562 10.7516 0.000976562H21.285C25.0816 0.000976562 26.9799 0.000976562 28.4248 0.751554C29.6424 1.38406 30.6352 2.37686 31.2677 3.59448C32.0183 5.0394 32.0183 6.93771 32.0183 10.7343V21.2676C32.0183 25.0642 32.0183 26.9626 31.2677 28.4075C30.6352 29.6251 29.6424 30.6179 28.4248 31.2504C26.9799 32.001 25.0816 32.001 21.285 32.001H10.7516C6.95504 32.001 5.05674 32.001 3.61181 31.2504C2.39419 30.6179 1.40139 29.6251 0.768888 28.4075C0.0183105 26.9626 0.0183105 25.0642 0.0183105 21.2676V10.7343Z" fill="url(#paint0_radial)"/>
<path d="M0.0183105 10.7343C0.0183105 6.93771 0.0183105 5.0394 0.768888 3.59448C1.40139 2.37686 2.39419 1.38406 3.61181 0.751554C5.05674 0.000976562 6.95504 0.000976562 10.7516 0.000976562H21.285C25.0816 0.000976562 26.9799 0.000976562 28.4248 0.751554C29.6424 1.38406 30.6352 2.37686 31.2677 3.59448C32.0183 5.0394 32.0183 6.93771 32.0183 10.7343V21.2676C32.0183 25.0642 32.0183 26.9626 31.2677 28.4075C30.6352 29.6251 29.6424 30.6179 28.4248 31.2504C26.9799 32.001 25.0816 32.001 21.285 32.001H10.7516C6.95504 32.001 5.05674 32.001 3.61181 31.2504C2.39419 30.6179 1.40139 29.6251 0.768888 28.4075C0.0183105 26.9626 0.0183105 25.0642 0.0183105 21.2676V10.7343Z" fill="url(#paint1_radial)"/>
<path d="M16.0005 4.36475C12.8404 4.36475 12.4438 4.37856 11.2026 4.43505C9.96384 4.49178 9.11829 4.6879 8.37843 4.97566C7.61312 5.27287 6.96393 5.67044 6.31716 6.31747C5.66991 6.96426 5.27235 7.61347 4.97417 8.37856C4.6857 9.11869 4.48934 9.9645 4.43358 11.2028C4.37807 12.444 4.36353 12.8409 4.36353 16.0011C4.36353 19.1614 4.37759 19.5567 4.43383 20.798C4.49079 22.0367 4.68691 22.8823 4.97442 23.6222C5.27186 24.3875 5.66943 25.0367 6.31644 25.6835C6.96296 26.3308 7.61215 26.7294 8.37698 27.0266C9.11732 27.3143 9.96311 27.5104 11.2016 27.5672C12.4428 27.6237 12.8391 27.6375 15.9991 27.6375C19.1594 27.6375 19.5548 27.6237 20.796 27.5672C22.0347 27.5104 22.8813 27.3143 23.6216 27.0266C24.3867 26.7294 25.0349 26.3308 25.6814 25.6835C26.3287 25.0367 26.7262 24.3875 27.0244 23.6224C27.3105 22.8823 27.5068 22.0365 27.565 20.7982C27.6208 19.557 27.6353 19.1614 27.6353 16.0011C27.6353 12.8409 27.6208 12.4443 27.565 11.203C27.5068 9.96426 27.3105 9.11869 27.0244 8.37881C26.7262 7.61347 26.3287 6.96426 25.6814 6.31747C25.0342 5.6702 24.3869 5.27262 23.6209 4.97566C22.8791 4.6879 22.033 4.49178 20.7943 4.43505C19.5531 4.37856 19.158 4.36475 15.9969 4.36475H16.0005ZM14.9567 6.46172C15.2665 6.46123 15.6122 6.46172 16.0005 6.46172C19.1073 6.46172 19.4756 6.47287 20.7024 6.52863C21.8369 6.5805 22.4527 6.77008 22.8628 6.92935C23.4059 7.14026 23.793 7.39238 24.2 7.79965C24.6073 8.20693 24.8594 8.59481 25.0708 9.13784C25.23 9.54753 25.4199 10.1633 25.4715 11.2978C25.5272 12.5245 25.5394 12.893 25.5394 15.9984C25.5394 19.1039 25.5272 19.4724 25.4715 20.699C25.4196 21.8336 25.23 22.4494 25.0708 22.859C24.8599 23.4021 24.6073 23.7887 24.2 24.1958C23.7928 24.603 23.4061 24.8552 22.8628 25.0661C22.4532 25.2261 21.8369 25.4152 20.7024 25.467C19.4758 25.5228 19.1073 25.5349 16.0005 25.5349C12.8934 25.5349 12.5252 25.5228 11.2986 25.467C10.1641 25.4147 9.54834 25.2251 9.13793 25.0658C8.59491 24.8549 8.20704 24.6028 7.79978 24.1955C7.39252 23.7883 7.14041 23.4014 6.92902 22.8581C6.76976 22.4484 6.57994 21.8326 6.52831 20.6981C6.47255 19.4714 6.4614 19.1029 6.4614 15.9955C6.4614 12.8881 6.47255 12.5216 6.52831 11.2949C6.58019 10.1604 6.76976 9.54462 6.92902 9.13444C7.13993 8.59141 7.39252 8.20353 7.79978 7.79626C8.20704 7.38899 8.59491 7.13687 9.13793 6.92547C9.5481 6.76547 10.1641 6.57638 11.2986 6.52426C12.372 6.47578 12.788 6.46123 14.9567 6.45881V6.46172ZM22.2117 8.39384C21.4408 8.39384 20.8154 9.01856 20.8154 9.78972C20.8154 10.5606 21.4408 11.1861 22.2117 11.1861C22.9826 11.1861 23.608 10.5606 23.608 9.78972C23.608 9.01881 22.9826 8.39335 22.2117 8.39335V8.39384ZM16.0005 10.0254C12.7005 10.0254 10.0249 12.701 10.0249 16.0011C10.0249 19.3012 12.7005 21.9757 16.0005 21.9757C19.3005 21.9757 21.9751 19.3012 21.9751 16.0011C21.9751 12.701 19.3003 10.0254 16.0003 10.0254H16.0005ZM16.0005 12.1223C18.1425 12.1223 19.8792 13.8588 19.8792 16.0011C19.8792 18.1432 18.1425 19.8799 16.0005 19.8799C13.8583 19.8799 12.1218 18.1432 12.1218 16.0011C12.1218 13.8588 13.8583 12.1223 16.0005 12.1223Z" fill="white"/>
</g>
<defs>
<radialGradient id="paint0_radial" cx="0" cy="0" r="1" gradientUnits="userSpaceOnUse" gradientTransform="translate(8.51835 34.4656) rotate(-90) scale(31.7144 29.4969)">
<stop stop-color="#FFDD55"/>
<stop offset="0.1" stop-color="#FFDD55"/>
<stop offset="0.5" stop-color="#FF543E"/>
<stop offset="1" stop-color="#C837AB"/>
</radialGradient>
<radialGradient id="paint1_radial" cx="0" cy="0" r="1" gradientUnits="userSpaceOnUse" gradientTransform="translate(-5.34186 2.3062) rotate(78.6806) scale(14.1765 58.4359)">
<stop stop-color="#3771C8"/>
<stop offset="0.128" stop-color="#3771C8"/>
<stop offset="1" stop-color="#6600FF" stop-opacity="0"/>
</radialGradient>
<clipPath id="clip0">
<rect width="32" height="32" fill="white" transform="translate(0 0.000976562)"/>
</clipPath>
</defs>
</svg>
