<svg width="40" height="40" viewBox="0 0 40 40" fill="none" xmlns="http://www.w3.org/2000/svg">
<path d="M18.3661 18.3818V37.5487L20 39.9997V18.3818H18.3661Z" fill="#4F4F4F"/>
<path d="M20 18.3818V39.9997L21.634 37.5487V18.3818H20Z" fill="black"/>
<path d="M29.3955 9.39532C29.3955 14.5873 25.1881 18.7906 20.0002 18.7906C15.6579 18.7906 12.0018 15.8454 10.9276 11.8422C10.7151 11.062 10.6049 10.245 10.6049 9.39532C10.6048 4.20745 14.8122 0 20.0001 0C22.9085 0 25.5066 1.31943 27.2264 3.39454C28.5826 5.02036 29.3955 7.11597 29.3955 9.39532Z" fill="#09CF8A"/>
<path d="M27.5489 5.83737C27.5489 11.0252 23.3414 15.2327 18.1536 15.2327C15.2451 15.2327 12.6512 13.9133 10.9273 11.8422C10.7149 11.062 10.6046 10.245 10.6046 9.39532C10.6046 4.20745 14.8121 0 19.9999 0C22.9084 0 25.5064 1.31943 27.2262 3.39454C27.4386 4.17482 27.5489 4.99183 27.5489 5.83737Z" fill="#09CF8A"/>
<path d="M22.4713 4.39538C22.5478 3.70709 22.0248 3.0897 21.3455 2.95526C19.6944 2.62854 15.6683 2.33906 13.8977 6.70155C13.8977 6.70155 13.466 7.82409 14.7072 7.68375C15.3054 7.6161 15.84 7.28751 16.2165 6.8178C16.8279 6.05494 18.2789 4.81298 20.9762 5.3998C21.6096 5.53757 22.2857 5.18788 22.4422 4.55887C22.4551 4.50659 22.465 4.4521 22.4713 4.39538Z" fill="white"/>
</svg>
