<svg width="80" height="80" viewBox="0 0 80 80" fill="none" xmlns="http://www.w3.org/2000/svg">
<circle cx="40" cy="40" r="40" fill="#00C580"/>
<path d="M40 18C42.6476 18 45.1859 18.4677 47.5369 19.3249L44.9111 21.9509C43.3461 21.526 41.6995 21.2993 40 21.2993C29.6719 21.2993 21.2993 29.6719 21.2993 40C21.2993 50.3281 29.6719 58.7007 40 58.7007C50.3281 58.7007 58.7007 50.3281 58.7007 40C58.7007 38.3028 58.4746 36.6584 58.0509 35.0952L60.6772 32.469C61.5331 34.8183 62 37.3546 62 40C62 52.1503 52.1503 62 40 62C27.8497 62 18 52.1503 18 40C18 27.8497 27.8497 18 40 18ZM39.9999 26.8028C41.1407 26.8028 42.2476 26.9475 43.3034 27.2196L43.3035 30.6668C42.2703 30.3011 41.1584 30.1021 39.9999 30.1021C34.5335 30.1021 30.102 34.5335 30.102 40C30.102 45.4665 34.5335 49.8979 39.9999 49.8979C45.4664 49.8979 49.8979 45.4665 49.8979 40C49.8979 38.8432 49.6994 37.7327 49.3347 36.7007L52.7814 36.7007C53.0528 37.7552 53.1972 38.8608 53.1972 40C53.1972 47.2886 47.2886 53.1972 39.9999 53.1972C32.7113 53.1972 26.8027 47.2886 26.8027 40C26.8027 32.7114 32.7113 26.8028 39.9999 26.8028ZM44.399 40C44.399 42.4296 42.4295 44.3991 39.9999 44.3991C37.5704 44.3991 35.6009 42.4296 35.6009 40C35.6009 37.5705 37.5704 35.6009 39.9999 35.6009C40.6106 35.6009 41.1922 35.7254 41.7208 35.9503L45.5031 32.168L45.5028 25.1532C45.5028 24.7157 45.6766 24.2961 45.986 23.9867L51.4847 18.4877C51.9565 18.0159 52.666 17.8747 53.2825 18.1301C53.8989 18.3854 54.3008 18.9869 54.3008 19.6542V25.7029L60.35 25.7031C61.0172 25.7031 61.6187 26.105 61.8741 26.7214C62.1294 27.3379 61.9882 28.0474 61.5164 28.5192L56.0175 34.018C55.7081 34.3274 55.2885 34.5012 54.851 34.5012L47.8358 34.5012L44.0521 38.2849C44.2755 38.8119 44.399 39.3915 44.399 40ZM54.1677 31.2019L56.3674 29.0023L52.6512 29.0022C51.7401 29.0022 51.0015 28.2636 51.0015 27.3526V23.6369L48.8021 25.8364L48.8023 31.0722C48.8249 31.0925 48.8471 31.1135 48.8688 31.1352C48.8906 31.157 48.9117 31.1792 48.932 31.2019L54.1677 31.2019Z" fill="white"/>
</svg>
