<svg width="32" height="32" viewBox="0 0 32 32" fill="none" xmlns="http://www.w3.org/2000/svg">
<g clip-path="url(#clip0)">
<path d="M0 10.7343C0 6.93771 0 5.0394 0.750577 3.59448C1.38308 2.37686 2.37588 1.38406 3.5935 0.751554C5.03843 0.000976562 6.93673 0.000976562 10.7333 0.000976562H21.2667C25.0633 0.000976562 26.9616 0.000976562 28.4065 0.751554C29.6241 1.38406 30.6169 2.37686 31.2494 3.59448C32 5.0394 32 6.93771 32 10.7343V21.2676C32 25.0642 32 26.9626 31.2494 28.4075C30.6169 29.6251 29.6241 30.6179 28.4065 31.2504C26.9616 32.001 25.0633 32.001 21.2667 32.001H10.7333C6.93673 32.001 5.03843 32.001 3.5935 31.2504C2.37588 30.6179 1.38308 29.6251 0.750577 28.4075C0 26.9626 0 25.0642 0 21.2676V10.7343Z" fill="url(#paint0_linear)"/>
<path d="M12.3334 24.5008C11.6855 24.5008 11.7956 24.2562 11.5721 23.6392L9.66675 17.3685L24.3334 8.66748" fill="#C8DAEA"/>
<path d="M12.3333 24.5007C12.8333 24.5007 13.0542 24.272 13.3333 24.0007L15.9999 21.4077L12.6736 19.4019" fill="#A9C9DD"/>
<path d="M12.6733 19.4025L20.7333 25.3574C21.653 25.8649 22.3169 25.6021 22.5459 24.5035L25.8268 9.04297C26.1627 7.69627 25.3134 7.08547 24.4335 7.48493L5.16855 14.9134C3.85353 15.4409 3.8612 16.1745 4.92885 16.5014L9.87268 18.0445L21.3182 10.8236C21.8585 10.496 22.3544 10.6722 21.9474 11.0334" fill="url(#paint1_linear)"/>
</g>
<defs>
<linearGradient id="paint0_linear" x1="21.3344" y1="5.33538" x2="13.3344" y2="24.001" gradientUnits="userSpaceOnUse">
<stop stop-color="#37AEE2"/>
<stop offset="1" stop-color="#1E96C8"/>
</linearGradient>
<linearGradient id="paint1_linear" x1="18.5008" y1="15.334" x2="21.6306" y2="22.4562" gradientUnits="userSpaceOnUse">
<stop stop-color="#EFF7FC"/>
<stop offset="1" stop-color="white"/>
</linearGradient>
<clipPath id="clip0">
<rect width="32" height="32" fill="white" transform="translate(0 0.000976562)"/>
</clipPath>
</defs>
</svg>
