<svg width="32" height="32" viewBox="0 0 32 32" fill="none" xmlns="http://www.w3.org/2000/svg">
<path d="M0 10.7343C0 6.93771 0 5.0394 0.750577 3.59448C1.38308 2.37686 2.37588 1.38406 3.5935 0.751554C5.03843 0.000976562 6.93673 0.000976562 10.7333 0.000976562H21.2667C25.0633 0.000976562 26.9616 0.000976562 28.4065 0.751554C29.6241 1.38406 30.6169 2.37686 31.2494 3.59448C32 5.0394 32 6.93771 32 10.7343V21.2676C32 25.0642 32 26.9626 31.2494 28.4075C30.6169 29.6251 29.6241 30.6179 28.4065 31.2504C26.9616 32.001 25.0633 32.001 21.2667 32.001H10.7333C6.93673 32.001 5.03843 32.001 3.5935 31.2504C2.37588 30.6179 1.38308 29.6251 0.750577 28.4075C0 26.9626 0 25.0642 0 21.2676V10.7343Z" fill="#1EA1F2"/>
<path fill-rule="evenodd" clip-rule="evenodd" d="M24.8819 12.1024C24.8896 12.3023 24.8922 12.5021 24.8922 12.7019C24.8922 18.7616 20.6295 25.7571 12.8346 25.7571C10.4401 25.7571 8.2136 24.994 6.33765 23.6948C6.66926 23.7311 7.00604 23.7585 7.34798 23.7585C9.33333 23.7585 11.1619 23.0224 12.6124 21.7869C10.7579 21.7596 9.19207 20.4241 8.65203 18.6071C8.91128 18.6617 9.17828 18.689 9.45131 18.689C9.83632 18.689 10.2101 18.6345 10.5684 18.5255C8.62789 18.1076 7.16624 16.2543 7.16624 14.0285C7.16624 14.0013 7.16624 13.9921 7.16624 13.974C7.73816 14.3101 8.39275 14.519 9.08784 14.5462C7.94917 13.7195 7.20068 12.3113 7.20068 10.7215C7.20068 9.88567 7.40912 9.09524 7.77604 8.41387C9.8656 11.1939 12.9896 13.02 16.5116 13.2107C16.4392 12.8746 16.4022 12.5204 16.4022 12.1661C16.4022 9.63137 18.2997 7.57812 20.6407 7.57812C21.8595 7.57812 22.9603 8.13239 23.7329 9.02271C24.7001 8.82284 25.6063 8.4413 26.4262 7.91437C26.1084 8.9864 25.4374 9.88562 24.5606 10.4489C25.4185 10.3399 26.2368 10.0948 26.9956 9.73136C26.4262 10.6489 25.7096 11.4574 24.8819 12.1024Z" fill="white"/>
</svg>
